Coordinates
version=1
nRows=8
nColumns=40
inDegrees=yes

Units are S.I. units (second, meters, Newtons, ...)
If the header above contains a line with 'inDegrees', this indicates whether rotational values are in degrees (yes) or radians (no).

endheader
time	pelvis_tilt	pelvis_list	pelvis_rotation	pelvis_tx	pelvis_ty	pelvis_tz	hip_flexion_r	hip_adduction_r	hip_rotation_r	knee_angle_r	knee_angle_r_beta	ankle_angle_r	subtalar_angle_r	mtp_angle_r	hip_flexion_l	hip_adduction_l	hip_rotation_l	knee_angle_l	knee_angle_l_beta	ankle_angle_l	subtalar_angle_l	mtp_angle_l	lumbar_extension	lumbar_bending	lumbar_rotation	arm_flex_r	arm_add_r	arm_rot_r	elbow_flex_r	pro_sup_r	wrist_flex_r	wrist_dev_r	arm_flex_l	arm_add_l	arm_rot_l	elbow_flex_l	pro_sup_l	wrist_flex_l	wrist_dev_l
      1.28000000	     -4.67579264	      1.93546253	      1.16656138	      0.95230100	      0.92314959	      0.26254959	     28.22097874	     -2.79808261	    -20.50051148	     22.09996636	      0.38571718	    -11.95732390	     -0.09993770	      0.00000000	     -4.75508256	     -6.76056093	    -24.32360275	     41.60040339	      0.72606401	    -38.88019023	    -16.72501188	      0.00000000	      1.80884483	     -0.49840195	      5.00002679	     44.34972488	    -15.63202867	     44.34972488	     75.07344785	     44.99910486	      0.00000000	      0.00000000	     44.34972488	    -15.63202867	     44.34972488	     75.07344785	     44.99910486	      0.00000000	      0.00000000
      1.28500000	     -4.80781646	      1.07998024	      0.90528762	      0.95899158	      0.92352029	      0.26441414	     27.72196611	     -1.47112753	    -20.13744635	     21.59543242	      0.37691140	    -11.99522813	     -0.83890705	      0.00000000	     -3.38441551	     -8.45701462	    -24.89022872	     44.27107225	      0.77267597	    -38.72285511	    -17.60997747	      0.00000000	      2.00437456	      0.28250992	      5.30392982	     44.35131570	    -15.62947473	     44.35131570	     75.07286881	     44.99912436	      0.00000000	      0.00000000	     44.35131570	    -15.62947473	     44.35131570	     75.07286881	     44.99912436	      0.00000000	      0.00000000
      1.29000000	     -4.89563589	      0.32219998	      0.58151823	      0.96560605	      0.92397683	      0.26637930	     27.20070918	     -0.23477606	    -19.71657141	     21.14862149	      0.36911308	    -11.97500215	     -1.49915444	      0.00000000	     -2.13438053	     -9.98869573	    -25.36345908	     46.70251714	      0.81511269	    -38.58860723	    -18.53309868	      0.00000000	      2.11702445	      0.96638281	      5.74969108	     44.35285599	    -15.62700563	     44.35285599	     75.07231106	     44.99914290	      0.00000000	      0.00000000	     44.35285599	    -15.62700563	     44.35285599	     75.07231106	     44.99914290	      0.00000000	      0.00000000
      1.29500000	     -5.04396548	     -0.48102804	     -0.05998186	      0.97215738	      0.92429128	      0.26920960	     26.68513992	      1.33824648	    -18.65347700	     20.46671110	      0.35721150	    -12.18873671	     -2.69844482	      0.00000000	     -0.95168131	    -11.67824150	    -26.20819659	     49.04651356	      0.85602315	    -38.19177601	    -18.98162427	      0.00000000	      2.26727384	      1.70730724	      6.69741870	     44.35653949	    -15.62111676	     44.35653949	     75.07098944	     44.99918580	      0.00000000	      0.00000000	     44.35653949	    -15.62111676	     44.35653949	     75.07098944	     44.99918580	      0.00000000	      0.00000000
      1.30000000	     -5.06263536	     -0.94028548	     -0.11330757	      0.97860876	      0.92504296	      0.27029382	     26.14445597	      1.97720034	    -18.67151099	     20.26372007	      0.35366863	    -11.79944280	     -2.76817388	      0.00000000	      0.25624545	    -12.65988150	    -26.04703199	     51.07849618	      0.89148794	    -37.97236452	    -19.96770477	      0.00000000	      2.27842853	      2.17769520	      6.95638084	     44.35772466	    -15.61922658	     44.35772466	     75.07056772	     44.99919920	      0.00000000	      0.00000000	     44.35772466	    -15.61922658	     44.35772466	     75.07056772	     44.99919920	      0.00000000	      0.00000000
      1.30500000	     -5.30958155	     -1.60968215	     -0.30293205	      0.98503038	      0.92532817	      0.27182703	     25.76551259	      3.01384504	    -18.34635514	     19.78126936	      0.34524828	    -11.80210983	     -3.34772910	      0.00000000	      1.73093962	    -14.00117777	    -26.05132056	     53.27422874	      0.92981070	    -37.21953835	    -20.40097863	      0.00000000	      2.55334859	      2.75405837	      7.15501004	     44.36035041	    -15.61504759	     44.36035041	     75.06964004	     44.99922814	      0.00000000	      0.00000000	     44.36035041	    -15.61504759	     44.36035041	     75.06964004	     44.99922814	      0.00000000	      0.00000000
      1.31000000	     -5.45650354	     -2.14405395	     -0.39090823	      0.99134987	      0.92583590	      0.27291053	     25.33944206	      3.76031804	    -18.29337054	     19.47861463	      0.33996596	    -11.59827842	     -3.48489371	      0.00000000	      3.12153933	    -15.05593886	    -25.81987816	     55.24440842	      0.96419682	    -36.52305538	    -20.95327643	      0.00000000	      2.69545592	      3.28148464	      7.35765892	     44.36218620	    -15.61213185	     44.36218620	     75.06899600	     44.99924788	      0.00000000	      0.00000000	     44.36218620	    -15.61213185	     44.36218620	     75.06899600	     44.99924788	      0.00000000	      0.00000000
      1.31500000	     -5.19036345	     -1.98451168	     -0.64203696	      0.99751885	      0.92740491	      0.27424131	     24.56002121	      3.80986880	    -17.99650313	     19.38084124	      0.33825949	    -11.29818548	     -3.40476012	      0.00000000	      3.80154893	    -15.09478763	    -25.67130650	     56.42834240	      0.98486037	    -36.18104637	    -21.32464366	      0.00000000	      2.31206992	      2.92792873	      7.52584461	     44.36239621	    -15.61179872	     44.36239621	     75.06892263	     44.99925010	      0.00000000	      0.00000000	     44.36239621	    -15.61179872	     44.36239621	     75.06892263	     44.99925010	      0.00000000	      0.00000000
